<?xml version="1.0" standalone="no"?>
<!DOCTYPE svg PUBLIC "-//W3C//DTD SVG 20010904//EN"
 "http://www.w3.org/TR/2001/REC-SVG-20010904/DTD/svg10.dtd">
<svg version="1.0" xmlns="http://www.w3.org/2000/svg"
 width="512.000000pt" height="512.000000pt" viewBox="0 0 512.000000 512.000000"
 preserveAspectRatio="xMidYMid meet">
<metadata>
Created by potrace 1.11, written by Peter Selinger 2001-2013
</metadata>
<g transform="translate(0.000000,512.000000) scale(0.100000,-0.100000)"
fill="#000000" stroke="none">
<path d="M2352 5016 c-1417 -814 -1995 -1153 -2008 -1178 -21 -40 -21 -2516 0
-2556 11 -21 266 -173 1085 -645 589 -340 1084 -624 1101 -630 22 -8 38 -8 60
0 17 6 512 290 1101 630 819 472 1074 624 1085 645 21 40 21 2516 0 2556 -11
21 -230 152 -920 550 -1306 754 -1267 732 -1296 732 -16 0 -102 -43 -208 -104z
m639 -363 c359 -207 425 -249 411 -258 -9 -6 -203 -118 -429 -249 l-413 -238
-430 248 c-236 137 -428 249 -427 250 5 5 852 494 856 494 3 0 197 -111 432
-247z m1101 -635 c213 -123 387 -225 387 -228 0 -6 -849 -496 -856 -494 -14 4
-852 490 -852 494 0 3 192 116 427 251 l427 246 40 -23 c22 -13 214 -124 427
-246z m-1098 -598 c233 -135 424 -245 423 -246 -1 -1 -194 -112 -429 -248
l-428 -247 -429 248 c-392 226 -428 249 -408 260 12 7 204 118 427 247 223
129 408 234 412 233 4 -1 199 -112 432 -247z m-2026 -59 l422 -244 0 -495 c0
-391 -3 -493 -12 -489 -7 3 -200 113 -428 245 l-415 240 -3 497 c-1 273 2 495
6 493 5 -1 198 -113 430 -247z m3622 -245 l0 -494 -78 -46 c-43 -25 -82 -46
-85 -46 -4 0 -7 60 -7 134 0 129 -1 134 -25 159 -33 32 -68 41 -110 27 -60
-20 -64 -37 -67 -252 l-3 -193 -235 -137 c-129 -75 -238 -137 -242 -137 -5 -1
-8 221 -8 492 l0 493 428 247 c235 136 428 247 430 247 1 0 2 -222 2 -494z
m-1070 -620 l0 -494 -422 -243 c-232 -134 -425 -246 -430 -247 -4 -2 -7 220
-6 493 l3 497 420 244 c231 133 423 243 428 244 4 0 7 -222 7 -494z m-2896
-167 l86 -50 0 -178 c0 -101 5 -191 11 -209 23 -66 105 -83 161 -33 l33 29 5
134 5 134 233 -134 232 -135 0 -494 c0 -392 -3 -494 -12 -490 -7 2 -200 113
-428 245 l-415 240 -3 496 c-1 273 0 496 2 496 2 0 43 -23 90 -51z m1408 -813
l423 -245 3 -496 c1 -273 -1 -494 -5 -492 -5 2 -198 113 -430 247 l-423 243 0
494 c0 271 2 493 4 493 2 0 195 -110 428 -244z m1488 -250 l0 -493 -422 -244
c-232 -134 -425 -246 -430 -247 -4 -2 -7 220 -6 493 l3 497 420 243 c231 134
423 244 428 244 4 1 7 -221 7 -493z"/>
<path d="M4276 3135 c-16 -9 -35 -23 -42 -33 -18 -24 -17 -88 2 -117 19 -29
72 -48 108 -39 96 24 103 159 9 195 -33 12 -43 11 -77 -6z"/>
<path d="M747 1715 c-32 -33 -41 -68 -27 -110 22 -68 106 -87 159 -37 45 41
46 99 2 143 -39 39 -97 40 -134 4z"/>
</g>
</svg>
